<?xml version="1.0" encoding="UTF-8"?>
<svg id="svg2" width="63.998" height="67.999" version="1.1" viewBox="0 0 63.998 67.999" xml:space="preserve" xmlns="http://www.w3.org/2000/svg" xmlns:cc="http://creativecommons.org/ns#" xmlns:dc="http://purl.org/dc/elements/1.1/" xmlns:rdf="http://www.w3.org/1999/02/22-rdf-syntax-ns#"><metadata id="metadata12"><rdf:RDF><cc:Work rdf:about=""><dc:format>image/svg+xml</dc:format><dc:type rdf:resource="http://purl.org/dc/dcmitype/StillImage"/></cc:Work></rdf:RDF></metadata><path id="path6" d="m32.003 45.176 20.715 21.206c2.078 2.145 3.429 2.166 5.546 0l4.156-4.256c2.035-2.084 2.174-3.451 0-5.678l-21.93-22.448 21.931-22.449c2.055-2.109 2.094-3.533 0-5.68l-4.156-4.254c-2.156-2.207-3.488-2.105-5.546 0l-20.716 21.207-20.714-21.207c-2.059-2.105-3.391-2.207-5.547 0l-4.154 4.254c-2.096 2.146-2.059 3.57 0 5.68l21.929 22.449-21.929 22.448c-2.174 2.227-2.059 3.594 0 5.678l4.154 4.256c2.098 2.166 3.449 2.145 5.547 0l20.714-21.206z" style="fill-rule:evenodd;fill:#bebebe"/></svg>
