<?xml version="1.0" encoding="UTF-8"?>
<!-- Created with Inkscape (http://www.inkscape.org/) -->
<svg id="svg7384" width="16.085" height="16.024" version="1.1" xmlns="http://www.w3.org/2000/svg" xmlns:cc="http://creativecommons.org/ns#" xmlns:dc="http://purl.org/dc/elements/1.1/" xmlns:rdf="http://www.w3.org/1999/02/22-rdf-syntax-ns#">
 <title id="title9167">Gnome Symbolic Icon Theme</title>
 <metadata id="metadata90">
  <rdf:RDF>
   <cc:Work rdf:about="">
    <dc:format>image/svg+xml</dc:format>
    <dc:type rdf:resource="http://purl.org/dc/dcmitype/StillImage"/>
    <dc:title>Gnome Symbolic Icon Theme</dc:title>
   </cc:Work>
  </rdf:RDF>
 </metadata>
 <g id="layer12" transform="translate(-60.952,-646.98)">
  <path id="rect13039" d="m61.906 653a1.0001 1.0001 0 0 0-0.906 1v8a1.0001 1.0001 0 0 0 1 1h8a1.0001 1.0001 0 0 0 1-1v-8a1.0001 1.0001 0 0 0-1-1h-8a1.0001 1.0001 0 0 0-0.09375 0zm1.094 2h6v6h-6v-6z" style="block-progression:tb;color:#000000;enable-background:new;fill:#bebebe;text-indent:0;text-transform:none"/>
  <path id="path13041" d="m61.906 655a1.0011 1.0011 0 1 0 0.094 2h8a1.0001 1.0001 0 1 0 0-2h-8a1.0001 1.0001 0 0 0-0.09375 0z" style="block-progression:tb;color:#000000;enable-background:new;fill-rule:evenodd;fill:#bebebe;text-indent:0;text-transform:none"/>
  <path id="path12113-8" d="m76.235 653a1.0001 1.0001 0 0 0 0.781-1v-4a1.0001 1.0001 0 0 0-1-1h-4a1.0001 1.0001 0 1 0 0 2h3v3a1.0001 1.0001 0 0 0 1.2188 1z" style="block-progression:tb;color:#000000;enable-background:new;fill:#bebebe;text-indent:0;text-transform:none"/>
  <path id="path12147-8" d="m72.141 653a1.0001 1.0001 0 0 0 0.59375-0.28125l4-4a1.0165 1.0165 0 1 0-1.4375-1.4375l-4 4a1.0001 1.0001 0 0 0 0.843 1.72z" style="block-progression:tb;color:#000000;enable-background:new;fill:#bebebe;text-indent:0;text-transform:none"/>
  <rect id="rect12919-5" transform="scale(-1)" x="-77.016" y="-648" width="1" height="1" style="color:#000000;enable-background:new;fill:#bdbdbd"/>
  <rect id="rect4479-2-9-9-0-8-6" transform="scale(-1)" x="-72.016" y="-648" width="1" height="1" style="color:#000000;fill:#bebebe"/>
  <rect id="rect4479-2-9-9-0-8-6-6" transform="scale(-1)" x="-77.016" y="-653" width="1" height="1" style="color:#000000;fill:#bebebe"/>
  <rect id="rect4479-2-9-9-0-8-6-9" x="70" y="662" width="1" height="1" style="color:#000000;fill:#bebebe"/>
  <rect id="rect4479-2-9-9-0-8-6-4" x="61" y="662" width="1" height="1" style="color:#000000;fill:#bebebe"/>
 </g>
</svg>
