<?xml version="1.0" encoding="UTF-8"?>
<svg id="svg4" width="16" height="16" version="1.1" xmlns="http://www.w3.org/2000/svg" xmlns:cc="http://creativecommons.org/ns#" xmlns:dc="http://purl.org/dc/elements/1.1/" xmlns:rdf="http://www.w3.org/1999/02/22-rdf-syntax-ns#">
 <metadata id="metadata10">
  <rdf:RDF>
   <cc:Work rdf:about="">
    <dc:format>image/svg+xml</dc:format>
    <dc:type rdf:resource="http://purl.org/dc/dcmitype/StillImage"/>
    <dc:title/>
   </cc:Work>
  </rdf:RDF>
 </metadata>
 <path id="path2" d="m4.494 2v2h6c0.428 0 0.607 0.281 0.482 0.732l-0.351 1.268h-5.24c-1.839 0-3.131 1.343-3.506 2.74-0.188 0.7-0.174 1.477 0.238 2.155 0.412 0.677 1.252 1.105 2.16 1.105h6.76l1.865-6.732c0.435-1.57-0.728-3.268-2.408-3.268zm0.89 6h4.686l-0.555 2h-5.238c-0.398 0-0.409-0.072-0.453-0.145-0.044-0.072-0.094-0.294-0.014-0.595 0.162-0.603 0.73-1.26 1.575-1.26z" fill="#474747" font-family="sans-serif" font-weight="400" overflow="visible" style="font-feature-settings:normal;font-variant-alternates:normal;font-variant-caps:normal;font-variant-ligatures:normal;font-variant-numeric:normal;font-variant-position:normal;isolation:auto;mix-blend-mode:normal;shape-padding:0;text-decoration-color:#000000;text-decoration-line:none;text-decoration-style:solid;text-indent:0;text-orientation:mixed;text-transform:none"/>
 <rect id="rect837" x="2" y="13" width="10" height="2" style="fill:#474747"/>
</svg>
