<?xml version="1.0" encoding="UTF-8"?>
<svg id="svg7384" width="16" height="16" version="1.1" xmlns="http://www.w3.org/2000/svg" xmlns:cc="http://creativecommons.org/ns#" xmlns:dc="http://purl.org/dc/elements/1.1/" xmlns:rdf="http://www.w3.org/1999/02/22-rdf-syntax-ns#">
 <title id="title9167">Gnome Symbolic Icon Theme</title>
 <metadata id="metadata90">
  <rdf:RDF>
   <cc:Work rdf:about="">
    <dc:format>image/svg+xml</dc:format>
    <dc:type rdf:resource="http://purl.org/dc/dcmitype/StillImage"/>
    <dc:title>Gnome Symbolic Icon Theme</dc:title>
   </cc:Work>
  </rdf:RDF>
 </metadata>
 <path id="path8812-7" d="m4 1c-1 0-1 1-1 1h10s0-1-1-1zm-1 2c-0.97227 0-1 1-1 1h12s0-1-1-1zm-1 2a1.0001 1.0001 0 0 0-1 1v9a1.0001 1.0001 0 0 0 1 1h12a1.0001 1.0001 0 0 0 1-1v-9a1.0001 1.0001 0 0 0-1-1zm2.6016 2h6.7988l-3.4004 2.7188zm-1.6016 1.2773 5 4.002 5-4v5.7207h-10z" style="enable-background:new;fill:#bebebe"/>
</svg>
