<?xml version="1.0" encoding="UTF-8"?>
<svg id="svg8" width="16" height="16" version="1.1" xmlns="http://www.w3.org/2000/svg" xmlns:cc="http://creativecommons.org/ns#" xmlns:dc="http://purl.org/dc/elements/1.1/" xmlns:rdf="http://www.w3.org/1999/02/22-rdf-syntax-ns#">
 <metadata id="metadata14">
  <rdf:RDF>
   <cc:Work rdf:about="">
    <dc:format>image/svg+xml</dc:format>
    <dc:type rdf:resource="http://purl.org/dc/dcmitype/StillImage"/>
    <dc:title/>
   </cc:Work>
  </rdf:RDF>
 </metadata>
 <g id="g6" fill="#2e3436" font-weight="400">
  <path id="path2" d="M4 6v2h4.994s.791.014 1.553.395c.761.38 1.447.938 1.447 2.605v2h2v-2c0-2.333-1.314-3.775-2.553-4.395C10.203 5.986 8.994 6 8.994 6z" font-family="sans-serif" overflow="visible" style="fill:#bebebe;font-feature-settings:normal;font-variant-alternates:normal;font-variant-caps:normal;font-variant-ligatures:normal;font-variant-numeric:normal;font-variant-position:normal;isolation:auto;mix-blend-mode:normal;shape-padding:0;text-decoration-color:#000;text-decoration-line:none;text-decoration-style:solid;text-indent:0;text-orientation:mixed;text-transform:none" white-space="normal"/>
  <path id="path4" d="M7 3.022v1c0 .257-.13.529-.313.719l-2.28 2.281 2.28 2.281c.183.19.313.462.313.72v1H6c-.31 0-.552-.091-.75-.282L1.594 7.022 5.25 3.303c.198-.19.44-.28.75-.28z" color="#bebebe" font-family="Bitstream Vera Sans" overflow="visible" style="fill:#bebebe;text-decoration-line:none;text-indent:0;text-transform:none"/>
 </g>
</svg>
