<?xml version="1.0" encoding="UTF-8"?>
<!-- Created with Inkscape (http://www.inkscape.org/) -->
<svg id="svg11300" width="128" height="128" style="enable-background:new" version="1.0" viewBox="0 0 128 128" xmlns="http://www.w3.org/2000/svg" xmlns:cc="http://creativecommons.org/ns#" xmlns:dc="http://purl.org/dc/elements/1.1/" xmlns:rdf="http://www.w3.org/1999/02/22-rdf-syntax-ns#" xmlns:xlink="http://www.w3.org/1999/xlink">
 <title id="title4162">Adwaita Icon Template</title>
 <defs id="defs3">
  <radialGradient id="radialGradient927" cx="280.99" cy="488.85" r="224" gradientTransform="matrix(.34701 0 0 .34223 -33.506 42.518)" gradientUnits="userSpaceOnUse">
   <stop id="stop900" style="stop-color:#fdfacf" offset="0"/>
   <stop id="stop902" style="stop-color:#f9f06b" offset=".4"/>
   <stop id="stop904" style="stop-color:#f6d32d" offset="1"/>
  </radialGradient>
  <linearGradient id="linearGradient965" x1="85" x2="85" y1="107.16" y2="86" gradientTransform="translate(-6,176)" gradientUnits="userSpaceOnUse">
   <stop id="stop959" style="stop-color:#eef4fc" offset="0"/>
   <stop id="stop961" style="stop-color:#fff" offset="1"/>
  </linearGradient>
 </defs>
 <metadata id="metadata4">
  <rdf:RDF>
   <cc:Work rdf:about="">
    <dc:format>image/svg+xml</dc:format>
    <dc:type rdf:resource="http://purl.org/dc/dcmitype/StillImage"/>
    <dc:creator>
     <cc:Agent>
      <dc:title>GNOME Design Team</dc:title>
     </cc:Agent>
    </dc:creator>
    <dc:source/>
    <cc:license rdf:resource="http://creativecommons.org/licenses/by-sa/4.0/"/>
    <dc:title>Adwaita Icon Template</dc:title>
    <dc:subject>
     <rdf:Bag/>
    </dc:subject>
    <dc:date/>
    <dc:rights>
     <cc:Agent>
      <dc:title/>
     </cc:Agent>
    </dc:rights>
    <dc:publisher>
     <cc:Agent>
      <dc:title/>
     </cc:Agent>
    </dc:publisher>
    <dc:identifier/>
    <dc:relation/>
    <dc:language/>
    <dc:coverage/>
    <dc:description/>
    <dc:contributor>
     <cc:Agent>
      <dc:title/>
     </cc:Agent>
    </dc:contributor>
   </cc:Work>
   <cc:License rdf:about="http://creativecommons.org/licenses/by-sa/4.0/">
    <cc:permits rdf:resource="http://creativecommons.org/ns#Reproduction"/>
    <cc:permits rdf:resource="http://creativecommons.org/ns#Distribution"/>
    <cc:requires rdf:resource="http://creativecommons.org/ns#Notice"/>
    <cc:requires rdf:resource="http://creativecommons.org/ns#Attribution"/>
    <cc:permits rdf:resource="http://creativecommons.org/ns#DerivativeWorks"/>
    <cc:requires rdf:resource="http://creativecommons.org/ns#ShareAlike"/>
   </cc:License>
  </rdf:RDF>
 </metadata>
 <g id="layer1" transform="translate(0,-172)">
  <g id="layer2" style="display:none">
   <text id="context" x="7.9499588" y="148.65199" style="display:inline;enable-background:new;fill:#000000;font-family:Cantarell;font-size:6.0879px;line-height:125%;stroke-width:.33265" xml:space="preserve"><tspan id="tspan2716" x="7.9499588" y="148.65199" style="stroke-width:.33265">apps</tspan></text>
   <text id="text3021" x="7.7533054" y="157.23398" style="display:inline;enable-background:new;fill:#000000;font-family:Cantarell;font-size:6.0879px;font-weight:bold;line-height:125%;stroke-width:.33265" xml:space="preserve"><tspan id="tspan3023" x="7.7533054" y="157.23398" style="stroke-width:.33265">org.gnome.Weather</tspan></text>
   <rect id="rect13805" x="9.2651e-8" y="172" width="128" height="128" style="display:inline;enable-background:accumulate;fill:#f0f0f0"/>
   <g id="g1168" transform="matrix(.25 0 0 .25 6.9489e-8 225)">
    <rect id="rect1110" x="96" y="-180" width="320" height="448" rx="32" ry="32" style="fill:#2864b0;opacity:.1;paint-order:normal"/>
    <rect id="rect1110-8" x="48" y="-164" width="416" height="416" rx="32" ry="32" style="display:inline;enable-background:new;fill:#2864b0;opacity:.1;paint-order:normal"/>
    <rect id="rect1110-8-9" x="32" y="-116" width="448" height="320" rx="32" ry="32" style="display:inline;enable-background:new;fill:#2864b0;opacity:.1;paint-order:normal"/>
    <circle id="path1142" cx="256" cy="44" r="240" style="fill:#2864b0;opacity:.1;paint-order:normal"/>
   </g>
  </g>
  <g id="layer9">
   <rect id="rect915" x="20" y="192" width="88" height="88" style="enable-background:new;fill:#f5c211;paint-order:normal"/>
   <rect id="rect917" transform="rotate(135)" x="77.782" y="-255.97" width="87.681" height="87.681" style="enable-background:new;fill:#f6d32d;paint-order:normal"/>
   <ellipse id="circle921" cx="64" cy="236" rx="48" ry="48" style="enable-background:new;fill:url(#radialGradient927);paint-order:normal"/>
   <path id="path1781-3" d="m90 244c-7.8121 9e-3 -14.903 4.5662-18.158 11.668-2.1158-1.0908-4.4614-1.6629-6.8418-1.668-7.8907 9e-3 -14.424 6.1288-14.949 14.002-0.01667-7.1e-4 -0.034111-9.5e-4 -0.050781-0.00195-4.0995 0-7.6183 2.4697-9.1621 6h-0.83789v4c0 5.5228 4.4772 10 10 10h56a12 12 0 0 0 12-12v-4h-0.70703a12 12 0 0 0-7.3281-7.3125c0.0154-0.22879 0.0276-0.45831 0.0352-0.6875 0-11.046-8.9543-20-20-20z" style="enable-background:new;fill:#dceafa"/>
   <path id="path1781" d="m90 240c-7.8121 9e-3 -14.903 4.5662-18.158 11.668-2.1158-1.0908-4.4614-1.6629-6.8418-1.668-7.8907 9e-3 -14.424 6.1288-14.949 14.002-0.01667-7.1e-4 -0.034111-9.5e-4 -0.050781-0.00195-5.5228 0-10 4.4772-10 10s4.4772 10 10 10h56a12 12 0 0 0 12-12 12 12 0 0 0-8.0352-11.312c0.0154-0.22879 0.0276-0.45831 0.0352-0.6875 0-11.046-8.9543-20-20-20z" style="enable-background:new;fill:url(#linearGradient965)"/>
  </g>
 </g>
</svg>
